JK_SCALED_curve_Exp_kinematics.mot
nRows=29
nColumns=34
inDegrees=yes
endheader
time	pelvis_rotation	pelvis_obliquity	pelvis_tilt	pelvis_tx	pelvis_ty	pelvis_tz	hip_flexion_r	hip_adduction_r	hip_rotation_r	knee_angle_r	ankle_angle_r	subtalar_angle_r	mtp_angle_r	hip_flexion_l	hip_adduction_l	hip_rotation_l	knee_angle_l	ankle_angle_l	subtalar_angle_l	mtp_angle_l	lumbar_extension	lumbar_bending	lumbar_rotation	arm_flex_r	arm_add_r	arm_rot_r	elbow_flex_r	pro_sup_r	arm_flex_l	arm_add_l	arm_rot_l	elbow_flex_l	pro_sup_l
   0.00000  -27.56673  -16.13338    1.56950    0.63119    0.98780    0.47123   25.10325    0.01427    3.75681  -21.08263    9.66860   -0.81569   -2.19987  -14.12686    2.29960    6.71270  -65.08612  -12.36692  -12.19889   12.97906  -22.67996    6.12582   -1.49880  -22.95556  -19.28639  -20.08017   71.67433  116.81388  -16.14264  -17.21437    1.29667   83.98789  125.68514
   0.01466  -28.12495  -16.24824    3.20778    0.66445    0.97846    0.49510   23.88648    0.51714    5.08222  -25.18213    7.46158    2.49346   -3.16943  -11.68269    2.33536    4.68419  -73.58973  -11.07104  -12.59409   12.17765  -24.11495    5.97873    1.05339  -21.00650  -21.53997  -20.23042   74.12642  116.13967  -16.81722  -15.92434    0.37459   79.93877  125.51403
   0.02932  -28.34369  -17.39735    4.93500    0.69674    0.96895    0.51793   22.83575    2.06300    5.30015  -30.26821    8.23595    2.58922   -7.52142   -9.06117    0.74844    2.74609  -81.89701   -8.95516  -12.97037   10.70967  -25.92508    6.93842    4.00737  -18.80969  -24.12140  -20.32189   76.70192  114.72153  -17.06113  -14.62598   -0.40975   75.38111  125.19384
   0.04397  -28.11490  -18.57492    6.59155    0.72790    0.95965    0.53900   22.38190    3.46304    4.71643  -36.75281   12.20161    3.23016   -9.75866   -6.01068   -1.09236    1.58242  -89.76895   -6.79051  -13.21721   10.37053  -27.94711    7.95117    6.93077  -16.25892  -26.88643  -20.40581   79.10250  114.06687  -16.80482  -13.40851   -1.28535   70.40321  124.90815
   0.05863  -27.47229  -19.66883    7.61776    0.75890    0.95098    0.55777   22.32448    4.14688    2.92675  -42.89119   15.54382    4.98081  -11.00111   -1.91540   -2.74872    1.25150  -96.90273   -4.67582  -13.21041   10.81036  -29.49408    8.96516    9.80519  -13.45474  -29.76086  -20.49208   81.02638  113.34253  -16.17470  -12.24241   -1.95845   65.28666  124.66668
   0.07329  -27.08470  -20.49443    7.32594    0.79139    0.94311    0.57639   22.36555    4.46591    1.45195  -46.91199   19.00043    6.93498  -11.46883    3.82228   -4.09947    0.90594 -102.73679   -2.81949  -13.03825   12.58855  -29.36787    9.59903   12.90321  -10.70038  -32.45845  -20.34839   82.23560  112.50773  -15.89258  -11.18006   -2.53312   60.54433  124.53439
   0.08795  -26.09040  -21.20285    7.04408    0.82510    0.93901    0.59339   20.45214    4.63551    0.07150  -48.11925   22.33910    7.79230  -11.39077    9.54700   -5.29343    1.19478 -106.90025   -1.59184  -12.71641   13.87716  -29.37392   10.07210   15.45341   -8.08585  -34.79105  -20.01985   83.27771  112.08555  -16.27791  -10.55488   -3.13506   57.83095  123.98489
   0.10261  -24.97056  -21.11292    7.27381    0.86075    0.93882    0.61074   16.91966    4.42736   -0.37553  -47.83023   25.43188    7.63440  -11.85949   14.32412   -5.66064    1.33597 -108.97045   -0.46400  -12.28046   14.45426  -29.57547    9.45813   17.71806   -6.18221  -36.20751  -19.86809   84.38632  111.58213  -17.49990  -10.64369   -3.51200   57.63151  122.90758
   0.11727  -23.94410  -19.97934    7.14526    0.89753    0.94117    0.62808   13.22533    3.42036   -0.16320  -46.58143   27.98483    7.02058  -12.94556   19.08209   -4.92484    0.78728 -109.13448    0.91301  -11.79095   14.75915  -29.09336    7.60487   19.79053   -5.12895  -36.83142  -19.83138   85.64932  110.77237  -19.08350  -11.32509   -3.57574   59.20544  121.57668
   0.13192  -23.46422  -18.50519    6.91186    0.93559    0.94682    0.64383    9.44845    2.18558    0.60759  -44.39456   29.13204    6.13052  -13.90591   23.52432   -3.91476   -0.66173 -107.44161    2.15963  -11.18170   14.94844  -28.29186    5.34858   22.30844   -4.85097  -37.10050  -19.89905   87.07117  109.76262  -20.51064  -12.05478   -3.26528   61.24084  120.48340
   0.14658  -22.81321  -17.05548    6.31386    0.97545    0.95483    0.65812    5.50273    0.88780    1.25545  -41.11624   28.77596    4.94824  -14.44135   27.63374   -2.83550   -2.14793 -104.10912    3.31797  -10.12831   15.10020  -27.07703    3.23495   24.60669   -5.08495  -36.88788  -19.87514   88.51297  108.92480  -21.83910  -12.85910   -2.83039   63.43292  120.04253
   0.16124  -21.68235  -15.31870    5.57927    1.01763    0.96469    0.67117    0.99022   -0.82054    1.49506  -36.81324   27.22294    3.68388  -14.71333   30.88964   -1.24731   -3.64209  -99.20914    4.33154   -8.89256   15.35150  -25.72821    0.95936   26.24715   -5.72186  -36.13366  -19.64342   89.92617  108.48405  -23.03752  -13.80854   -2.37394   65.51337  119.94735
   0.17590  -20.08754  -13.45197    4.99394    1.06166    0.97615    0.68258   -4.03936   -2.71932    1.07536  -32.03905   24.12580    2.63302  -14.44088   32.98451    0.78788   -5.02862  -92.87756    5.06308   -7.71620   15.52352  -24.68756   -1.34717   27.13271   -6.32033  -35.02470  -19.04958   91.17478  108.65388  -24.19748  -14.68381   -2.10820   67.50447  120.12229
   0.19056  -17.93685  -11.51131    4.62056    1.10712    0.98844    0.69232   -9.26540   -4.73039   -0.64249  -27.44062   19.21500    2.33918  -12.32165   33.89834    3.27693   -6.17796  -85.27944    5.50932   -6.89997   15.56634  -24.09005   -3.64269   27.07850   -6.67490  -33.72745  -17.98797   92.12481  109.82897  -25.44578  -15.30935   -2.31355   69.48550  120.34164
   0.20522  -15.37120   -9.55077    4.13615    1.15365    0.99999    0.70088  -13.98028   -6.74337   -4.15860  -23.53128   12.39594    3.34184   -5.99512   34.06705    6.09099   -7.12956  -76.63409    5.97959   -6.32875   15.40493  -23.50488   -5.90441   26.23943   -6.85409  -32.23008  -16.66146   92.74102  111.81736  -26.86677  -15.69935   -2.95567   71.39343  120.38478
   0.21987  -12.60886   -8.19748    3.54690    1.20069    1.00998    0.70840  -17.97119   -7.98806   -8.93541  -20.52082    3.75700    5.42121    3.51836   33.63275    8.51779   -7.59506  -67.30574    6.66678   -5.53743   15.05084  -22.85067   -7.46160   25.11044   -7.04847  -30.82798  -15.08672   93.16602  113.66667  -28.35924  -15.82181   -3.66869   73.08406  119.68387
   0.23453  -10.25689   -8.12302    3.04272    1.24748    1.01867    0.71572  -21.20732   -7.80065  -12.39423  -18.36604   -5.24985    7.26327    9.51058   32.59961    9.51149   -7.78757  -57.65945    7.58890   -4.29405   14.76198  -22.16303   -7.72092   24.58428   -7.39129  -29.70805  -13.51651   93.42889  115.00152  -29.57127  -15.54971   -4.31556   74.14488  118.87166
   0.24919   -8.49549   -9.02501    2.69210    1.29393    1.02537    0.72321  -23.78467   -6.61461  -12.98774  -17.19900  -11.79043    8.31043    8.73447   31.10135    9.30815   -8.06192  -48.01140    8.62369   -2.59440   14.91473  -21.43377   -7.03039   24.71139   -7.82375  -28.94251  -11.91718   93.50361  116.27197  -30.66396  -14.94335   -5.01923   74.97436  118.07576
   0.26385   -7.58694  -10.77090    2.52839    1.33954    1.02974    0.73125  -25.37774   -4.80087  -10.16037  -17.85353  -15.41718    8.08375    6.42288   29.42977    7.90806   -8.84725  -38.81202    9.81797   -0.36207   15.99367  -20.67550   -5.56022   25.68481   -8.30034  -28.50135  -10.42876   93.43675  117.33115  -31.53791  -14.00910   -5.76179   75.56839  117.40076
   0.27851   -7.42189  -12.68756    2.39947    1.38430    1.03141    0.73983  -25.67202   -3.05197   -5.14033  -20.97701  -15.99749    7.16449    5.87761   27.89518    6.09474  -10.37367  -30.36988   10.95263    1.28487   17.37780  -19.76136   -3.97986   27.13518   -8.76956  -28.22026   -8.96928   93.10807  118.04776  -32.18832  -12.85033   -6.64711   75.88720  116.93331
   0.29317   -7.48572  -14.30973    2.38730    1.42873    1.03065    0.74835  -25.03216   -1.79363   -0.95525  -26.22619  -14.88025    7.12695    6.04916   26.32560    4.62282  -12.54651  -22.94856   11.73716    1.12222   18.30572  -18.91725   -2.65434   28.38219   -9.16583  -27.91253   -7.52330   92.46897  118.46815  -32.67270  -11.62447   -7.64542   75.99845  116.59648
   0.30782   -7.41206  -15.34723    2.59354    1.47283    1.02773    0.75632  -23.93546   -1.34290    1.16090  -32.84314  -13.21060    8.05055    6.08017   24.58059    3.99793  -15.15832  -16.92737   12.14748   -0.86089   18.17937  -18.39333   -1.83720   29.03206   -9.44085  -27.49697   -6.18584   91.47226  118.74595  -32.89809  -10.39481   -8.72129   75.94920  116.22135
   0.32248   -7.32723  -15.94106    3.19701    1.51648    1.02318    0.76377  -22.70618   -1.60783    2.02841  -40.26471  -11.53665    8.89681    6.16108   22.73125    3.97739  -17.48404  -13.03610   12.38762   -3.44845   17.44240  -18.36878   -1.44384   29.21291   -9.54454  -27.03551   -4.90997   90.11620  119.04766  -32.86508   -9.13664   -9.78689   75.73010  115.73351
   0.33714   -7.06937  -16.34403    4.12520    1.55921    1.01716    0.77074  -21.36551   -2.14725    2.38626  -48.18711  -10.07345    8.76620    6.33057   21.16186    4.16121  -17.97434  -12.01903   12.33763   -5.51015   16.66559  -18.88348   -1.21190   29.01289   -9.63824  -26.52706   -3.96691   88.54885  119.30108  -32.42238   -8.02837  -10.60861   75.32639  115.09623
   0.35180   -6.49121  -16.70310    4.92256    1.60088    1.00866    0.77711  -19.53122   -2.70282    2.52511  -56.42742   -8.73833    7.46006    6.22177   20.32478    4.44628  -16.18342  -13.78048   11.93962   -7.39161   16.20234  -19.46411   -0.94956   28.35079   -9.82973  -26.02519   -3.36904   86.82002  119.66155  -31.68371   -6.99812  -11.30563   74.85426  114.25983
   0.36646   -5.20753  -16.73027    5.37188    1.64210    0.99725    0.78234  -17.37981   -3.64247    1.94213  -64.57343   -7.22349    5.23166    5.23773   19.86245    5.53145  -13.06341  -16.98568    9.41763  -11.73626   17.97527  -19.94016   -0.87873   26.95414  -10.32032  -25.40262   -3.27169   85.04078  120.05931  -30.66819   -6.31421  -11.65828   74.42102  113.21234
   0.38112   -3.49146  -15.95149    5.75186    1.68276    0.98370    0.78632  -15.19618   -5.73047    0.81315  -72.39789   -5.50471    2.56647    3.42990   19.13510    7.81757  -10.26725  -20.24696    5.95621  -17.81057   23.83507  -20.55177   -1.56495   24.96729  -11.03709  -24.71748   -3.55202   83.14005  120.32324  -29.35316   -5.99101  -11.65451   74.09071  112.01676
   0.39577   -1.24324  -13.86742    6.18593    1.72166    0.96961    0.78929  -13.04075   -9.36174   -0.60620  -79.90776   -3.91188   -0.47597    1.60555   18.28112   11.46984   -8.53162  -23.84888    4.37379  -22.59739   31.96332  -21.67117   -3.64814   22.14974  -11.60038  -23.79829   -4.08276   80.89358  120.33345  -27.47876   -6.08472  -11.38533   73.89235  110.66557
   0.41043    1.66427  -10.74148    6.59277    1.75772    0.95658    0.79155  -10.65155  -14.02377   -1.87265  -87.02938   -2.40396   -3.37779   -0.16414   17.91525   15.94658   -7.23669  -28.76769    6.16623  -25.33960   32.41096  -23.42384   -6.84213   18.30836  -11.75459  -22.58684   -4.70245   78.06324  120.26725  -24.85075   -6.63596  -10.82469   73.68425  109.70294
